<svg width="220" height="220" viewBox="0 0 220 220" fill="none" xmlns="http://www.w3.org/2000/svg">
<g filter="url(#filter0_d_3_2)">
<path fill-rule="evenodd" clip-rule="evenodd" d="M70 0C42.3858 0 20 22.3858 20 50V150C20 177.614 42.3858 200 70 200H170C197.614 200 220 177.614 220 150V50C220 22.3858 197.614 0 170 0H70ZM155 65H85V135H155V65Z" fill="url(#paint0_linear_3_2)"/>
</g>
<g filter="url(#filter1_i_3_2)">
<path d="M80 25H178V50H80V25Z" fill="#676E78"/>
</g>
<g filter="url(#filter2_i_3_2)">
<rect x="170" y="42" width="25" height="116" fill="#676E78"/>
</g>
<g filter="url(#filter3_i_3_2)">
<rect x="45" y="60" width="25" height="80" fill="#676E78"/>
</g>
<g filter="url(#filter4_i_3_2)">
<path d="M45 50C45 36.1929 56.1929 25 70 25V60H45V50Z" fill="url(#paint1_linear_3_2)"/>
</g>
<g filter="url(#filter5_i_3_2)">
<path d="M45 150H70V175C56.1929 175 45 163.807 45 150Z" fill="url(#paint2_linear_3_2)"/>
</g>
<g filter="url(#filter6_i_3_2)">
<path d="M80 150H178V175H80V150Z" fill="#676E78"/>
</g>
<path d="M160 42.5C160 32.835 167.835 25 177.5 25C187.165 25 195 32.835 195 42.5C195 52.165 187.165 60 177.5 60C167.835 60 160 52.165 160 42.5Z" fill="white"/>
<path d="M160 157.5C160 147.835 167.835 140 177.5 140C187.165 140 195 147.835 195 157.5C195 167.165 187.165 175 177.5 175C167.835 175 160 167.165 160 157.5Z" fill="white"/>
<defs>
<filter id="filter0_d_3_2" x="0" y="0" width="220" height="220" filterUnits="userSpaceOnUse" color-interpolation-filters="sRGB">
<feFlood flood-opacity="0" result="BackgroundImageFix"/>
<feColorMatrix in="SourceAlpha" type="matrix" values="0 0 0 0 0 0 0 0 0 0 0 0 0 0 0 0 0 0 127 0" result="hardAlpha"/>
<feOffset dx="-10" dy="10"/>
<feGaussianBlur stdDeviation="5"/>
<feComposite in2="hardAlpha" operator="out"/>
<feColorMatrix type="matrix" values="0 0 0 0 0 0 0 0 0 0 0 0 0 0 0 0 0 0 0.25 0"/>
<feBlend mode="normal" in2="BackgroundImageFix" result="effect1_dropShadow_3_2"/>
<feBlend mode="normal" in="SourceGraphic" in2="effect1_dropShadow_3_2" result="shape"/>
</filter>
<filter id="filter1_i_3_2" x="80" y="25" width="98" height="29" filterUnits="userSpaceOnUse" color-interpolation-filters="sRGB">
<feFlood flood-opacity="0" result="BackgroundImageFix"/>
<feBlend mode="normal" in="SourceGraphic" in2="BackgroundImageFix" result="shape"/>
<feColorMatrix in="SourceAlpha" type="matrix" values="0 0 0 0 0 0 0 0 0 0 0 0 0 0 0 0 0 0 127 0" result="hardAlpha"/>
<feOffset dy="4"/>
<feGaussianBlur stdDeviation="2"/>
<feComposite in2="hardAlpha" operator="arithmetic" k2="-1" k3="1"/>
<feColorMatrix type="matrix" values="0 0 0 0 0 0 0 0 0 0 0 0 0 0 0 0 0 0 0.25 0"/>
<feBlend mode="normal" in2="shape" result="effect1_innerShadow_3_2"/>
</filter>
<filter id="filter2_i_3_2" x="170" y="42" width="25" height="120" filterUnits="userSpaceOnUse" color-interpolation-filters="sRGB">
<feFlood flood-opacity="0" result="BackgroundImageFix"/>
<feBlend mode="normal" in="SourceGraphic" in2="BackgroundImageFix" result="shape"/>
<feColorMatrix in="SourceAlpha" type="matrix" values="0 0 0 0 0 0 0 0 0 0 0 0 0 0 0 0 0 0 127 0" result="hardAlpha"/>
<feOffset dy="4"/>
<feGaussianBlur stdDeviation="2"/>
<feComposite in2="hardAlpha" operator="arithmetic" k2="-1" k3="1"/>
<feColorMatrix type="matrix" values="0 0 0 0 0 0 0 0 0 0 0 0 0 0 0 0 0 0 0.25 0"/>
<feBlend mode="normal" in2="shape" result="effect1_innerShadow_3_2"/>
</filter>
<filter id="filter3_i_3_2" x="45" y="60" width="25" height="84" filterUnits="userSpaceOnUse" color-interpolation-filters="sRGB">
<feFlood flood-opacity="0" result="BackgroundImageFix"/>
<feBlend mode="normal" in="SourceGraphic" in2="BackgroundImageFix" result="shape"/>
<feColorMatrix in="SourceAlpha" type="matrix" values="0 0 0 0 0 0 0 0 0 0 0 0 0 0 0 0 0 0 127 0" result="hardAlpha"/>
<feOffset dy="4"/>
<feGaussianBlur stdDeviation="2"/>
<feComposite in2="hardAlpha" operator="arithmetic" k2="-1" k3="1"/>
<feColorMatrix type="matrix" values="0 0 0 0 0 0 0 0 0 0 0 0 0 0 0 0 0 0 0.25 0"/>
<feBlend mode="normal" in2="shape" result="effect1_innerShadow_3_2"/>
</filter>
<filter id="filter4_i_3_2" x="45" y="25" width="25" height="39" filterUnits="userSpaceOnUse" color-interpolation-filters="sRGB">
<feFlood flood-opacity="0" result="BackgroundImageFix"/>
<feBlend mode="normal" in="SourceGraphic" in2="BackgroundImageFix" result="shape"/>
<feColorMatrix in="SourceAlpha" type="matrix" values="0 0 0 0 0 0 0 0 0 0 0 0 0 0 0 0 0 0 127 0" result="hardAlpha"/>
<feOffset dy="4"/>
<feGaussianBlur stdDeviation="2"/>
<feComposite in2="hardAlpha" operator="arithmetic" k2="-1" k3="1"/>
<feColorMatrix type="matrix" values="0 0 0 0 0 0 0 0 0 0 0 0 0 0 0 0 0 0 0.25 0"/>
<feBlend mode="normal" in2="shape" result="effect1_innerShadow_3_2"/>
</filter>
<filter id="filter5_i_3_2" x="45" y="150" width="25" height="29" filterUnits="userSpaceOnUse" color-interpolation-filters="sRGB">
<feFlood flood-opacity="0" result="BackgroundImageFix"/>
<feBlend mode="normal" in="SourceGraphic" in2="BackgroundImageFix" result="shape"/>
<feColorMatrix in="SourceAlpha" type="matrix" values="0 0 0 0 0 0 0 0 0 0 0 0 0 0 0 0 0 0 127 0" result="hardAlpha"/>
<feOffset dy="4"/>
<feGaussianBlur stdDeviation="2"/>
<feComposite in2="hardAlpha" operator="arithmetic" k2="-1" k3="1"/>
<feColorMatrix type="matrix" values="0 0 0 0 0 0 0 0 0 0 0 0 0 0 0 0 0 0 0.25 0"/>
<feBlend mode="normal" in2="shape" result="effect1_innerShadow_3_2"/>
</filter>
<filter id="filter6_i_3_2" x="80" y="150" width="98" height="29" filterUnits="userSpaceOnUse" color-interpolation-filters="sRGB">
<feFlood flood-opacity="0" result="BackgroundImageFix"/>
<feBlend mode="normal" in="SourceGraphic" in2="BackgroundImageFix" result="shape"/>
<feColorMatrix in="SourceAlpha" type="matrix" values="0 0 0 0 0 0 0 0 0 0 0 0 0 0 0 0 0 0 127 0" result="hardAlpha"/>
<feOffset dy="4"/>
<feGaussianBlur stdDeviation="2"/>
<feComposite in2="hardAlpha" operator="arithmetic" k2="-1" k3="1"/>
<feColorMatrix type="matrix" values="0 0 0 0 0 0 0 0 0 0 0 0 0 0 0 0 0 0 0.25 0"/>
<feBlend mode="normal" in2="shape" result="effect1_innerShadow_3_2"/>
</filter>
<linearGradient id="paint0_linear_3_2" x1="20" y1="200" x2="234.975" y2="17.655" gradientUnits="userSpaceOnUse">
<stop stop-color="#081829"/>
<stop offset="0.5" stop-color="#0F4C88"/>
<stop offset="0.9" stop-color="#243246"/>
</linearGradient>
<linearGradient id="paint1_linear_3_2" x1="70" y1="25" x2="45" y2="60" gradientUnits="userSpaceOnUse">
<stop stop-color="#89FFFF"/>
<stop offset="1" stop-color="#45BCFC"/>
</linearGradient>
<linearGradient id="paint2_linear_3_2" x1="70" y1="150" x2="54.7158" y2="179.957" gradientUnits="userSpaceOnUse">
<stop stop-color="#89FFFF"/>
<stop offset="1" stop-color="#45BCFC"/>
</linearGradient>
</defs>
</svg>
